# AST/ASF file generated using VICON BodyLanguage
# -----------------------------------------------
:version 1.10
:name VICON
:units
  mass 1.0
  length 0.45
  angle deg
:documentation
   .ast/.asf automatically generated from VICON data using
   VICON BodyBuilder and BodyLanguage model FoxedUp or BRILLIANT.MOD
:root
   order TX TY TZ RX RY RZ
   axis XYZ
   position 0 0 0  
   orientation 0 0 0 
:bonedata
  begin
     id 1 
     name lhipjoint
     direction 0.606768 -0.715223 0.346827 
     length 2.41543 
     axis 0 0 0  XYZ
  end
  begin
     id 2 
     name lfemur
     direction 0.34202 -0.939693 0  
     length 7.2778  
     axis 0 0 20  XYZ
    dof rx ry rz
    limits (-160.0 20.0)
           (-70.0 70.0)
           (-60.0 70.0)
  end
  begin
     id 3 
     name ltibia
     direction 0.34202 -0.939693 0   
     length 7.61811   
     axis 0 0 20   XYZ
    dof rx
    limits (-10.0 170.0)
  end
  begin
     id 4 
     name lfoot
     direction 0.0823924 -0.226371 0.97055   
     length 2.33618   
     axis -90 7.62852e-016 20   XYZ
    dof rx rz
    limits (-45.0 90.0)
           (-70.0 20.0)
  end
  begin
     id 5 
     name ltoes
     direction 1.53554e-011 -4.21934e-011 1   
     length 1.17015   
     axis -90 7.62852e-016 20   XYZ
    dof rx
    limits (-90.0 20.0)
  end
  begin
     id 6 
     name rhipjoint
     direction -0.6077 -0.714582 0.346516   
     length 2.4176  
     axis 0 0 0  XYZ 
  end
  begin
     id 7 
     name rfemur
     direction -0.34202 -0.939693 0   
     length 7.28127   
     axis 0 0 -20   XYZ
    dof rx ry rz
    limits (-160.0 20.0)
           (-70.0 70.0)
           (-70.0 60.0)
  end
  begin
     id 8 
     name rtibia
     direction -0.34202 -0.939693 0   
     length 7.77648   
     axis 0 0 -20   XYZ
    dof rx
    limits (-10.0 170.0)
 end
 begin
     id 9 
     name rfoot
     direction -0.0809463 -0.222398 0.97159   
     length 2.37533  
     axis -90 -7.62852e-016 -20   XYZ
    dof rx rz
    limits (-45.0 90.0)
           (-20.0 70.0)
  end
  begin
     id 10 
     name rtoes
     direction -1.53568e-011 -4.21714e-011 1   
     length 1.18972   
     axis -90 -7.62852e-016 -20   XYZ
    dof rx
    limits (-90.0 20.0)
  end
  begin
     id 11 
     name lowerback
     direction 0.010968 0.991932 -0.126297   
     length 2.21698   
     axis 0 0 0   XYZ
    dof rx ry rz
    limits (-20.0 45.0)
           (-30.0 30.0)
           (-30.0 30.0)
  end
  begin
     id 12 
     name upperback
     direction 0.0167007 0.997503 -0.0686276   
     length 2.22371   
     axis 0 0 0   XYZ
    dof rx ry rz
    limits (-20.0 45.0)
           (-30.0 30.0)
           (-30.0 30.0)
  end
  begin
     id 13 
     name thorax
     direction 0.0111721 0.999885 -0.0102878   
     length 2.25242   
     axis 0 0 0   XYZ
    dof rx ry rz
    limits (-20.0 45.0)
           (-30.0 30.0)
           (-30.0 30.0)
  end
  begin
     id 14 
     name lowerneck
     direction -0.0120265 0.990428 0.137508   
     length 1.57674   
     axis 0 0 0   XYZ
    dof rx ry rz
    limits (-20.0 45.0)
           (-30.0 30.0)
           (-30.0 30.0)
  end
  begin
     id 15 
     name upperneck
     direction 0.0175669 0.998907 0.0433089   
     length 1.5618   
     axis 0 0 0   XYZ
    dof rx ry rz
    limits (-20.0 45.0)
           (-30.0 30.0)
           (-30.0 30.0)
  end
  begin
     id 16
     name head
     direction 0.00754609 0.99997 0.00185367  
     length 1.60579  
     axis 0 0 0   XYZ
    dof rx ry rz
    limits (-20.0 45.0)
           (-30.0 30.0)
           (-30.0 30.0)
  end
  begin
     id 17 
     name lclavicle
     direction 0.885866 0.429166 -0.176231  
     length 3.44967  
     axis 0 0 0   XYZ
    dof ry rz
    limits (-20.0 10.0)
           (0.0 20.0)
  end
  begin
     id 18 
     name lhumerus
     direction 1 -4.48973e-011 -1.90255e-027   
     length 5.20607   
     axis 180 -30 -90   XYZ
    dof rx ry rz
    limits (-60.0 90.0)
           (-90.0 90.0)
           (-90.0 90.0)
  end
  begin
     id 19
     name lradius
     direction 1 -4.48956e-011 9.87925e-027   
     length 3.39961   
     axis 180 -30 -90   XYZ
    dof rx
    limits (-10.0 170.0)
  end
  begin
     id 20
     name lwrist
     direction 1 -4.48985e-011 1.73247e-026   
     length 1.6998   
     axis -9.60847e-015 90 90   XYZ
    dof ry
    limits (-180.0 0.0)
 end
  begin
     id 21 
     name lhand
     direction 1 -4.48798e-011 3.46119e-026   
     length 0.519693   
     axis -2.21073e-014 90 90   XYZ
    dof rx rz
    limits (-90.0 90.0)
           (-45.0 45.0)
  end
  begin
     id 22 
     name lfingers
     direction 1 -4.48938e-011 6.92797e-026   
     length 0.41899   
     axis -4.42155e-014 90 90   XYZ
    dof rx
    limits (0.0 90.0)
  end
  begin
     id 23
     name lthumb
     direction 0.707107 -6.34952e-011 0.707107   
     length 0.601588   
     axis -90 45 6.0103e-014   XYZ
    dof rx rz
    limits (-45.0 45.0)
           (-45.0 45.0)
  end
  begin
     id 24 
     name rclavicle
     direction -0.866736 0.456792 -0.200276   
     length 3.45032  
     axis 0 0 0   XYZ 
    dof ry rz
    limits (-10.0 20.0)
           (-20.0 0.0)
  end
  begin
     id 25 
     name rhumerus
     direction -1 -4.4897e-011 8.65094e-028  
     length 5.32214   
     axis 180 30 90   XYZ
    dof rx ry rz
    limits (-90.0 60.0)
           (-90.0 90.0)
           (-90.0 90.0)
  end
  begin
     id 26 
     name rradius
     direction -1 -4.48987e-011 1.08427e-026   
     length 3.51208   
     axis 180 30 90   XYZ
    dof rx
    limits (-10.0 170.0)
  end
  begin
     id 27 
     name rwrist
     direction -1 -4.48961e-011 1.73222e-026   
     length 1.75604   
     axis -9.60847e-015 -90 -90   XYZ
    dof ry
    limits (-180.0 0.0)
  end
  begin
     id 28
     name rhand
     direction -1 -4.48895e-011 3.46314e-026   
     length 0.586681   
     axis -2.21073e-014 -90 -90   XYZ
    dof rx rz
    limits (-90.0 90.0)
           (-45.0 45.0)
  end
  begin
     id 29
     name rfingers
     direction -1 -4.48968e-011 6.92916e-026   
     length 0.472997   
     axis -4.42155e-014 -90 -90   XYZ
    dof rx
    limits (0.0 90.0)
  end
  begin
     id 30
     name rthumb
     direction -0.707107 -6.34848e-011 0.707107   
     length 0.679133   
     axis -90 -45 -6.0103e-014   XYZ
    dof rx rz
    limits (-45.0 45.0)
           (-45.0 45.0)
  end
:hierarchy
  begin
    root lhipjoint rhipjoint lowerback
    lhipjoint lfemur
    lfemur ltibia
    ltibia lfoot
    lfoot ltoes
    rhipjoint rfemur
    rfemur rtibia
    rtibia rfoot
    rfoot rtoes
    lowerback upperback
    upperback thorax
    thorax lowerneck lclavicle rclavicle
    lowerneck upperneck
    upperneck head
    lclavicle lhumerus
    lhumerus lradius
    lradius lwrist
    lwrist lhand lthumb
    lhand lfingers
    rclavicle rhumerus
    rhumerus rradius
    rradius rwrist
    rwrist rhand rthumb
    rhand rfingers
  end

#!OML:ASF H:\Dans Jumps\Project 1\Capture day 1\Session 1\subject.ASF
:FULLY-SPECIFIED
:DEGREES
23
root 0.830868 17.5423 -13.8824 6.68882 -1.83693 -1.6264
lowerback -3.2427 -0.730808 0.46771
upperback 3.16899 -1.0891 1.83116
thorax 5.12391 -0.560447 1.5507
lowerneck -13.8932 0.969591 -1.90058
upperneck 30.9057 2.03655 -0.376774
head 12.531 0.622084 0.482319
rclavicle 9.44227e-015 -2.18663e-014
rhumerus -23.3617 -19.6979 -78.4178
rradius 26.1047
rwrist 32.3625
rhand -18.1632 -25.9701
rfingers 7.12502
rthumb 8.11279 -55.7944
lclavicle 9.44227e-015 -2.18663e-014
lhumerus -19.4719 4.05406 85.7264
lradius 18.9749
lwrist 0.00101071
lhand -25.1913 -4.96607
lfingers 7.12502
lthumb 1.3268 25.0095
rfemur -13.1831 -2.12784 19.1364
rtibia 20.8056
rfoot -13.3466 -2.95679
rtoes 11.4015
lfemur -11.3445 8.34519 -17.8898
ltibia 17.6187
lfoot -11.1094 5.10995
ltoes -8.16867
24
root 0.830589 17.5424 -13.8787 6.69501 -1.8864 -1.62378
lowerback -3.23999 -0.717497 0.452478
upperback 3.1651 -1.07053 1.83509
thorax 5.1182 -0.55187 1.5648
lowerneck -13.8767 0.980337 -1.89658
upperneck 30.9265 2.05315 -0.383829
head 12.536 0.628751 0.481331
rclavicle 5.76476e-015 2.38542e-014
rhumerus -23.3368 -19.6928 -78.4344
rradius 26.1119
rwrist 32.348
rhand -18.1451 -25.984
rfingers 7.12502
rthumb 8.13033 -55.8076
lclavicle 5.76476e-015 2.38542e-014
lhumerus -19.4449 4.0482 85.7275
lradius 19.0029
lwrist 0.0432029
lhand -25.1828 -4.9065
lfingers 7.12502
lthumb 1.33505 25.0691
rfemur -13.1803 -2.12187 19.1328
rtibia 20.7994
rfoot -13.3569 -2.92453
rtoes 11.3883
lfemur -11.3167 8.31858 -17.8938
ltibia 17.5995
lfoot -11.09 5.22206
ltoes -8.24366
25
root 0.830172 17.5424 -13.8752 6.7022 -1.93952 -1.62301
lowerback -3.23662 -0.703399 0.438042
upperback 3.1608 -1.05096 1.83972
thorax 5.11164 -0.542783 1.57924
lowerneck -13.8609 0.98996 -1.8906
upperneck 30.9466 2.06829 -0.39315
head 12.541 0.634704 0.478918
rclavicle -7.00716e-015 -2.38542e-015
rhumerus -23.3163 -19.6788 -78.4529
rradius 26.124
rwrist 32.3307
rhand -18.1259 -26.0105
rfingers 7.12502
rthumb 8.1488 -55.8334
lclavicle -7.00716e-015 -2.38542e-015
lhumerus -19.4227 4.02941 85.7293
lradius 19.0254
lwrist 0.0820204
lhand -25.1818 -4.86094
lfingers 7.12502
lthumb 1.33596 25.1146
rfemur -13.1798 -2.10586 19.1315
rtibia 20.7939
rfoot -13.367 -2.89878
rtoes 11.3691
lfemur -11.2938 8.28896 -17.8958
ltibia 17.5867
lfoot -11.0661 5.35192
ltoes -8.3466
26
root 0.829636 17.5423 -13.8718 6.70907 -1.99223 -1.62682
lowerback -3.23189 -0.689879 0.427945
upperback 3.15637 -1.03246 1.84588
thorax 5.10414 -0.534092 1.59277
lowerneck -13.8331 1.00074 -1.8578
upperneck 30.9526 2.08594 -0.430328
head 12.5384 0.641525 0.461409
rclavicle -3.32964e-015 -1.27222e-014
rhumerus -23.2993 -19.661 -78.4715
rradius 26.1376
rwrist 32.3098
rhand -18.1085 -26.0295
rfingers 7.12502
rthumb 8.16561 -55.8517
lclavicle -3.32964e-015 -1.27222e-014
lhumerus -19.406 4.00032 85.7319
lradius 19.0426
lwrist 0.117368
lhand -25.183 -4.82337
lfingers 7.12502
lthumb 1.33487 25.1522
rfemur -13.1792 -2.08287 19.1355
rtibia 20.7893
rfoot -13.3779 -2.87945
rtoes 11.3488
lfemur -11.2756 8.25711 -17.8924
ltibia 17.583
lfoot -11.0416 5.49181
ltoes -8.46383
27
root 0.829017 17.542 -13.8684 6.7156 -2.04401 -1.6316
lowerback -3.22709 -0.677403 0.419102
upperback 3.15346 -1.01547 1.85217
thorax 5.09821 -0.526109 1.60561
lowerneck -13.8017 1.01093 -1.81098
upperneck 30.9501 2.10301 -0.481391
head 12.532 0.648052 0.436008
rclavicle -1.2424e-015 1.19271e-014
rhumerus -23.2822 -19.6388 -78.4927
rradius 26.1536
rwrist 32.2852
rhand -18.092 -26.0481
rfingers 7.12502
rthumb 8.18159 -55.8697
lclavicle -1.2424e-015 1.19271e-014
lhumerus -19.3912 3.96237 85.7343
lradius 19.0553
lwrist 0.151687
lhand -25.181 -4.78994
lfingers 7.12502
lthumb 1.33677 25.1856
rfemur -13.1786 -2.05719 19.1405
rtibia 20.7858
rfoot -13.3903 -2.86403
rtoes 11.3272
lfemur -11.2633 8.22662 -17.8878
ltibia 17.5898
lfoot -11.0164 5.63271
ltoes -8.5892
28
root 0.828346 17.5415 -13.865 6.72304 -2.09424 -1.63718
lowerback -3.22289 -0.666101 0.412016
upperback 3.1512 -1.00015 1.8583
thorax 5.09329 -0.518893 1.61716
lowerneck -13.7762 1.01792 -1.76905
upperneck 30.9497 2.11602 -0.529439
head 12.5276 0.652543 0.412078
rclavicle 6.4605e-016 1.82882e-014
rhumerus -23.2655 -19.6129 -78.516
rradius 26.1705
rwrist 32.2603
rhand -18.0788 -26.0572
rfingers 7.12502
rthumb 8.19425 -55.8783
lclavicle 6.4605e-016 1.82882e-014
lhumerus -19.3805 3.9232 85.7356
lradius 19.0659
lwrist 0.178456
lhand -25.1768 -4.7559
lfingers 7.12502
lthumb 1.3408 25.2196
rfemur -13.1798 -2.03177 19.1466
rtibia 20.7832
rfoot -13.4039 -2.84927
rtoes 11.3064
lfemur -11.2586 8.19931 -17.8826
ltibia 17.6073
lfoot -10.9949 5.76849
ltoes -8.70702
29
root 0.827667 17.5408 -13.8617 6.73087 -2.14263 -1.64453
lowerback -3.21991 -0.655914 0.408269
upperback 3.15067 -0.986568 1.86441
thorax 5.09086 -0.512421 1.62667
lowerneck -13.762 1.02228 -1.74403
upperneck 30.9558 2.12514 -0.561163
head 12.5278 0.655302 0.396864
rclavicle 1.00883e-014 -1.94809e-014
rhumerus -23.2456 -19.5922 -78.54
rradius 26.1824
rwrist 32.2433
rhand -18.0725 -26.0576
rfingers 7.12502
rthumb 8.20041 -55.8784
lclavicle 1.00883e-014 -1.94809e-014
lhumerus -19.3725 3.88337 85.736
lradius 19.074
lwrist 0.20244
lhand -25.1698 -4.73396
lfingers 7.12502
lthumb 1.34759 25.2415
rfemur -13.182 -2.0104 19.1545
rtibia 20.782
rfoot -13.4188 -2.83186
rtoes 11.2819
lfemur -11.2598 8.17638 -17.8757
ltibia 17.634
lfoot -10.9756 5.89525
ltoes -8.81957
30
root 0.826977 17.5401 -13.8584 6.74048 -2.18773 -1.65099
lowerback -3.21684 -0.646887 0.406074
upperback 3.15003 -0.97456 1.86932
thorax 5.08827 -0.506648 1.63393
lowerneck -13.7632 1.02207 -1.74405
upperneck 30.9745 2.12765 -0.569154
head 12.5359 0.655032 0.394271
rclavicle 2.48481e-016 -3.97569e-016
rhumerus -23.2295 -19.5679 -78.5658
rradius 26.1972
rwrist 32.2223
rhand -18.0682 -26.0483
rfingers 7.12502
rthumb 8.2045 -55.869
lclavicle 2.48481e-016 -3.97569e-016
lhumerus -19.3684 3.85326 85.7334
lradius 19.0797
lwrist 0.210728
lhand -25.1638 -4.7384
lfingers 7.12502
lthumb 1.35337 25.2371
rfemur -13.1865 -1.99471 19.1614
rtibia 20.7817
rfoot -13.4343 -2.81193
rtoes 11.2564
lfemur -11.2678 8.15828 -17.8704
ltibia 17.668
lfoot -10.9602 6.0089
ltoes -8.91533
31
root 0.826288 17.5394 -13.8551 6.75039 -2.22662 -1.65446
lowerback -3.21357 -0.640442 0.403545
upperback 3.15057 -0.965928 1.87261
thorax 5.08685 -0.502533 1.63946
lowerneck -13.782 1.02029 -1.77072
upperneck 31.0058 2.12744 -0.550399
head 12.5522 0.653648 0.406317
rclavicle 1.3418e-014 -7.95139e-015
rhumerus -23.2124 -19.5453 -78.5933
rradius 26.2101
rwrist 32.2046
rhand -18.0666 -26.0354
rfingers 7.12502
rthumb 8.20606 -55.856
lclavicle 1.3418e-014 -7.95139e-015
lhumerus -19.3665 3.83255 85.7283
lradius 19.0835
lwrist 0.209889
lhand -25.165 -4.76407
lfingers 7.12502
lthumb 1.35219 25.2114
rfemur -13.1903 -1.98771 19.1651
rtibia 20.7815
rfoot -13.4512 -2.7883
rtoes 11.2317
lfemur -11.2803 8.14197 -17.8686
ltibia 17.7069
lfoot -10.9462 6.11036
ltoes -9.00677
32
root 0.825591 17.5387 -13.8519 6.7605 -2.25793 -1.65521
lowerback -3.21001 -0.636427 0.401228
upperback 3.15157 -0.960482 1.87426
thorax 5.08578 -0.499957 1.64291
lowerneck -13.8095 1.01816 -1.81042
upperneck 31.0433 2.12649 -0.518334
head 12.5724 0.652005 0.425711
rclavicle -9.44227e-016 2.38542e-015
rhumerus -23.1992 -19.5171 -78.6229
rradius 26.2267
rwrist 32.1771
rhand -18.0625 -26.0258
rfingers 7.12502
rthumb 8.20998 -55.8463
lclavicle -9.44227e-016 2.38542e-015
lhumerus -19.3659 3.82169 85.7204
lradius 19.0813
lwrist 0.198184
lhand -25.1722 -4.80697
lfingers 7.12502
lthumb 1.34524 25.1685
rfemur -13.1929 -1.98739 19.1658
rtibia 20.7809
rfoot -13.4687 -2.76359
rtoes 11.2132
lfemur -11.2959 8.12686 -17.8701
ltibia 17.7476
lfoot -10.9312 6.19845
ltoes -9.0945
33
root 0.824801 17.538 -13.8488 6.76995 -2.28048 -1.65509
lowerback -3.20799 -0.635959 0.399493
upperback 3.15575 -0.959863 1.87516
thorax 5.08903 -0.499757 1.64488
lowerneck -13.8408 1.01564 -1.85429
upperneck 31.0794 2.12448 -0.480861
head 12.5929 0.650099 0.447785
rclavicle -7.60351e-015 -1.03368e-014
rhumerus -23.1822 -19.4883 -78.656
rradius 26.243
rwrist 32.1487
rhand -18.0556 -26.0186
rfingers 7.12502
rthumb 8.21664 -55.8388
lclavicle -7.60351e-015 -1.03368e-014
lhumerus -19.3618 3.82063 85.7092
lradius 19.0713
lwrist 0.176472
lhand -25.1869 -4.86111
lfingers 7.12502
lthumb 1.33103 25.1145
rfemur -13.1932 -1.99122 19.1662
rtibia 20.7795
rfoot -13.4865 -2.74255
rtoes 11.1937
lfemur -11.3143 8.10983 -17.8723
ltibia 17.7885
lfoot -10.9094 6.27829
ltoes -9.19712
34
root 0.823937 17.5375 -13.8457 6.7769 -2.29476 -1.65504
lowerback -3.20905 -0.63832 0.400455
upperback 3.16529 -0.963275 1.8749
thorax 5.0997 -0.501462 1.6438
lowerneck -13.8613 1.01573 -1.87576
upperneck 31.0972 2.12572 -0.463268
head 12.604 0.649987 0.458672
rclavicle -2.20651e-014 2.38542e-015
rhumerus -23.159 -19.4632 -78.6929
rradius 26.2577
rwrist 32.1208
rhand -18.0519 -26.0078
rfingers 7.12502
rthumb 8.22022 -55.8279
lclavicle -2.20651e-014 2.38542e-015
lhumerus -19.3498 3.83258 85.6938
lradius 19.0506
lwrist 0.138262
lhand -25.1296 -4.77438
lfingers 7.12502
lthumb 1.38643 25.2009
rfemur -13.1886 -1.99841 19.1673
rtibia 20.7764
rfoot -13.5049 -2.72415
rtoes 11.1747
lfemur -11.3324 8.08797 -17.874
ltibia 17.8291
lfoot -10.8816 6.35453
ltoes -9.30187
35
root 0.82302 17.537 -13.8427 6.78201 -2.30113 -1.655
lowerback -3.21313 -0.64409 0.402602
upperback 3.17922 -0.971455 1.87478
thorax 5.11679 -0.505516 1.6418
lowerneck -13.863 1.0184 -1.87702
upperneck 31.0931 2.13018 -0.46476
head 12.6027 0.651595 0.45895
rclavicle 1.49585e-014 7.55382e-015
rhumerus -23.1306 -19.4344 -78.7331
rradius 26.2708
rwrist 32.0897
rhand -18.0523 -26.0001
rfingers 7.12502
rthumb 8.21986 -55.8202
lclavicle 1.49585e-014 7.55382e-015
lhumerus -19.3297 3.85828 85.6757
lradius 19.0159
lwrist 0.086888
lhand -25.0149 -4.57251
lfingers 7.12502
lthumb 1.49721 25.402
rfemur -13.1806 -2.00932 19.169
rtibia 20.7717
rfoot -13.5228 -2.70928
rtoes 11.1593
lfemur -11.3515 8.06386 -17.8758
ltibia 17.8693
lfoot -10.8457 6.4279
ltoes -9.42126
36
root 0.822095 17.5366 -13.8398 6.78536 -2.30321 -1.65724
lowerback -3.22015 -0.651078 0.409089
upperback 3.19853 -0.981656 1.87454
thorax 5.14118 -0.510436 1.63706
lowerneck -13.8683 1.02155 -1.87039
upperneck 31.0855 2.13518 -0.472456
head 12.6008 0.653584 0.455576
rclavicle 2.5345e-015 -1.47101e-014
rhumerus -23.0972 -19.4042 -78.777
rradius 26.283
rwrist 32.0641
rhand -18.0692 -25.9899
rfingers 7.12502
rthumb 8.20359 -55.8106
lclavicle 2.5345e-015 -1.47101e-014
lhumerus -19.2993 3.89946 85.6543
lradius 18.9684
lwrist 0.0170341
lhand -24.8383 -4.25925
lfingers 7.12502
lthumb 1.66774 25.714
rfemur -13.1696 -2.02099 19.1736
rtibia 20.765
rfoot -13.5395 -2.69815
rtoes 11.1489
lfemur -11.37 8.03854 -17.8756
ltibia 17.9087
lfoot -10.8073 6.50059
ltoes -9.52948
